<svg width="600" height="260" viewBox="0 0 600 260" fill="none" xmlns="http://www.w3.org/2000/svg">
<path d="M600 217.778L580 212.5C560 207.222 520 196.667 480 203.693C440 210.851 400 235.26 360 235.359C320 235.26 280 210.851 240 196.667C200 182.483 160 179.184 120 191.389C80 203.594 40 231.962 20 245.915L1.43051e-05 260V165H20C40 165 80 165 120 165C160 165 200 165 240 165C280 165 320 165 360 165C400 165 440 165 480 165C520 165 560 165 580 165H600V217.778Z" fill="#8E5FFA"/>
<path d="M0 0.300049L25 27.75C50 55.2 100 110.1 150 137.55C200 165 250 165 300 158.881C350 152.991 400 140.409 450 125.369C500 110.1 550 91.8 575 82.65L600 73.5V165H575C550 165 500 165 450 165C400 165 350 165 300 165C250 165 200 165 150 165C100 165 50 165 25 165H0V0.300049Z" fill="#8E5FFA"/>
</svg>
