<?xml version="1.0" encoding="UTF-8" standalone="no" ?>
<!DOCTYPE svg PUBLIC "-//W3C//DTD SVG 1.1//EN" "http://www.w3.org/Graphics/SVG/1.1/DTD/svg11.dtd">
<svg xmlns="http://www.w3.org/2000/svg" xmlns:xlink="http://www.w3.org/1999/xlink" version="1.1" width="50" height="50" viewBox="0 0 50 50" xml:space="preserve">
<desc>Created with Fabric.js 5.3.0</desc>
<defs>
</defs>
<g transform="matrix(0.08 0 0 0.08 31.33 25.94)" id="wZuS-q6yXAqCY-exgX8-G"  >
<path style="stroke: rgb(98,35,84); stroke-width: 0.5; stroke-dasharray: none; stroke-linecap: butt; stroke-dashoffset: 0; stroke-linejoin: miter; stroke-miterlimit: 4; fill: rgb(0,0,0); fill-rule: nonzero; opacity: 1;" vector-effect="non-scaling-stroke"  transform=" translate(0, 0)" d="M 0 -58 C 32.016 -58 58 -32.016 58 0 C 58 32.016 32.016 58 0 58 C -32.016 58 -58 32.016 -58 0 C -58 -32.016 -32.016 -58 0 -58 z" stroke-linecap="round" />
</g>
<g transform="matrix(0.08 0 0 0.08 13.67 25.94)" id="mdsagzUAUROCE1BsvAxJA"  >
<path style="stroke: rgb(98,35,84); stroke-width: 0.5; stroke-dasharray: none; stroke-linecap: butt; stroke-dashoffset: 0; stroke-linejoin: miter; stroke-miterlimit: 4; fill: rgb(0,0,0); fill-rule: nonzero; opacity: 1;" vector-effect="non-scaling-stroke"  transform=" translate(0, 0)" d="M 0 -58 C 32.016 -58 58 -32.016 58 0 C 58 32.016 32.016 58 0 58 C -32.016 58 -58 32.016 -58 0 C -58 -32.016 -32.016 -58 0 -58 z" stroke-linecap="round" />
</g>
<g transform="matrix(0.19 0 0 0.19 32.83 26.44)" id="VBcYOf7iYQ1M95cWjKRjK"  >
<path style="stroke: rgb(0,0,0); stroke-width: 0.5; stroke-dasharray: none; stroke-linecap: round; stroke-dashoffset: 0; stroke-linejoin: round; stroke-miterlimit: 4; fill: rgb(255,255,255); fill-rule: evenodd; opacity: 1;" vector-effect="non-scaling-stroke"  transform=" translate(-0.0000033594, 4.308e-7)" d="M -2.53691 -3.9149 C -2.53691 -3.9158999999999997 -1.8469100000000003 -8.5939 3.3450899999999995 -13.547899999999998 C -15.51691 -21.7339 -25.260910000000003 -2.333899999999998 -17.59891 11.037100000000002 C -14.282910000000001 16.8241 -4.2089099999999995 17.921100000000003 2.0190899999999985 15.222100000000001 C 15.349089999999999 9.446100000000001 13.279089999999998 -7.451899999999998 9.346089999999998 -9.890899999999998 C 1.7630899999999983 -7.985899999999998 -2.5369100000000007 -3.9148999999999985 -2.5369100000000007 -3.9148999999999985 z M -46.31891 8.9481 C -47.41691 4.0081 -48.405910000000006 -2.7469 -48.289910000000006 -7.805900000000001 C -48.204910000000005 -11.535900000000002 -47.47791000000001 -17.0139 -46.37491000000001 -20.0939 C -40.93291000000001 -33.825900000000004 -24.922910000000005 -45.206900000000005 -10.273910000000008 -47.822900000000004 C 31.84308999999999 -55.1469 64.80309 -9.105900000000005 39.43008999999999 26.99409999999999 C 34.98208999999999 33.794099999999986 31.058089999999993 36.93409999999999 24.25708999999999 41.12109999999999 C 17.45508999999999 45.306099999999994 10.09108999999999 47.14009999999999 2.2820899999999895 48.446099999999994 C -4.6489100000000105 49.42209999999999 -22.28091000000001 45.5821 -28.17891000000001 40.674099999999996 C -31.857910000000007 37.2621 -37.90191000000001 30.817099999999996 -40.753910000000005 25.688099999999995 C -43.32591000000001 21.062099999999994 -45.170910000000006 14.114099999999995 -46.31891 8.948099999999997 z" stroke-linecap="round" />
</g>
<g transform="matrix(0.18 0 0 0.19 14.86 26.44)" id="LX8PWeVWnIPMVT-yT1nXD"  >
<path style="stroke: rgb(0,0,0); stroke-width: 0.5; stroke-dasharray: none; stroke-linecap: round; stroke-dashoffset: 0; stroke-linejoin: round; stroke-miterlimit: 4; fill: rgb(255,255,255); fill-rule: evenodd; opacity: 1;" vector-effect="non-scaling-stroke"  transform=" translate(0.000004361, 0.0000048698)" d="M -1.76088 -3.37426 C -1.76088 -3.37526 0.07312000000000007 -8.10526 4.68912 -13.88926 C -17.320880000000002 -18.957259999999998 -23.03088 -2.6632599999999993 -16.00188 11.02674 C -13.28088 16.32874 -4.75788 18.545740000000002 3.3551199999999994 15.47674 C 13.72312 11.554739999999999 17.02312 -8.978259999999999 10.41912 -10.68526 C 4.362119999999999 -8.875259999999999 -1.7608800000000002 -3.37526 -1.7608800000000002 -3.3742599999999996 z M 48.92112 -4.43126 C 48.722120000000004 -0.9652599999999998 47.76612 5.52674 46.81712 9.71074 C 45.87012 13.88674 44.587120000000006 19.54874 42.621120000000005 23.352739999999997 C 40.163120000000006 28.106739999999995 35.93912 34.22674 31.631120000000003 37.402739999999994 C 23.293120000000002 43.54973999999999 9.203120000000002 49.59873999999999 -1.0908799999999985 48.43773999999999 C -16.77288 46.66973999999999 -36.40688 37.18873999999999 -44.77688 19.13873999999999 C -57.59688 -8.067260000000008 -39.28488 -42.59826000000001 -8.938879999999997 -47.83126000000001 C 12.773120000000002 -51.49326000000001 35.09512 -41.59526000000001 44.69012 -21.671260000000007 C 46.61312 -17.234260000000006 48.23912 -9.079260000000007 48.92112 -4.431260000000009 z" stroke-linecap="round" />
</g>
<g transform="matrix(0.18 0 0 0.17 23.89 34.86)" id="OW6tNMGK5nVgbYXEGZm-T"  >
<path style="stroke: rgb(0,0,0); stroke-width: 0.5; stroke-dasharray: none; stroke-linecap: round; stroke-dashoffset: 0; stroke-linejoin: round; stroke-miterlimit: 4; fill: rgb(255,175,19); fill-rule: evenodd; opacity: 1;" vector-effect="non-scaling-stroke"  transform=" translate(-0.0000048373, 0.0000014865)" d="M -1.03282 14.85282 C -12.50582 15.54882 -16.88782 -3.81518 -16.31682 -14.892180000000002 C -5.737819999999999 -9.793180000000001 7.460180000000001 -9.824180000000002 16.32018 -11.545180000000002 C 16.96418 -1.1511800000000019 10.77018 15.816819999999996 -1.032820000000001 14.852819999999998 z" stroke-linecap="round" />
</g>
<g transform="matrix(0.16 0 0 0.18 23.91 32.08)" id="kz3oFqtCrvYtWGqmeOzBw"  >
<path style="stroke: rgb(0,0,0); stroke-width: 0.5; stroke-dasharray: none; stroke-linecap: round; stroke-dashoffset: 0; stroke-linejoin: round; stroke-miterlimit: 4; fill: rgb(252,134,29); fill-rule: evenodd; opacity: 1;" vector-effect="non-scaling-stroke"  transform=" translate(-0.0000025884, -8.287e-7)" d="M -1.56946 -25.54244 C 9.94054 -27.37444 18.66954 -7.792439999999999 18.312540000000002 1.9255600000000008 C 10.648540000000002 9.54756 5.1885400000000015 16.40956 -1.3214599999999983 25.66256 C -8.217459999999999 13.394559999999998 -11.699459999999998 10.34156 -18.311459999999997 3.49456 C -18.651459999999997 -5.86844 -11.509459999999997 -23.97244 -1.5694599999999959 -25.54244 z" stroke-linecap="round" />
</g>
</svg>